<?xml version="1.0" standalone="no"?>
<!DOCTYPE svg PUBLIC "-//W3C//DTD SVG 20010904//EN"
 "http://www.w3.org/TR/2001/REC-SVG-20010904/DTD/svg10.dtd">
<svg version="1.0" xmlns="http://www.w3.org/2000/svg"
 width="201.000000pt" height="201.000000pt" viewBox="0 0 201.000000 201.000000"
 preserveAspectRatio="xMidYMid meet">
<metadata>
Created by potrace 1.14, written by Peter Selinger 2001-2017
</metadata>
<g transform="translate(0.000000,201.000000) scale(0.100000,-0.100000)"
fill="#000000" stroke="none">
<path d="M290 1005 l0 -1005 715 0 715 0 0 1005 0 1005 -715 0 -715 0 0 -1005z
m624 190 c38 -108 70 -194 72 -193 1 2 35 90 74 196 l72 192 74 0 74 0 1 -67
c0 -38 8 -222 17 -410 l17 -343 -56 0 -56 0 -7 108 c-3 59 -9 212 -12 341 l-7
234 -76 -206 -76 -207 -42 0 c-41 0 -42 0 -63 58 -32 84 -96 260 -113 312 -15
44 -15 42 -16 -110 -1 -85 -4 -239 -8 -343 l-6 -187 -54 0 -53 0 0 38 c0 20 7
205 17 410 l17 372 71 0 70 0 69 -195z"/>
</g>
</svg>
