<?xml version="1.0" standalone="no"?>
<!DOCTYPE svg PUBLIC "-//W3C//DTD SVG 20010904//EN"
 "http://www.w3.org/TR/2001/REC-SVG-20010904/DTD/svg10.dtd">
<svg version="1.0" xmlns="http://www.w3.org/2000/svg"
 width="260.000000pt" height="260.000000pt" viewBox="0 0 260.000000 260.000000"
 preserveAspectRatio="xMidYMid meet">
<metadata>
Created by potrace 1.14, written by Peter Selinger 2001-2017
</metadata>
<g transform="translate(0.000000,260.000000) scale(0.100000,-0.100000)"
fill="#000000" stroke="none">
<path d="M0 1300 l0 -1300 1300 0 1300 0 0 1300 0 1300 -1300 0 -1300 0 0
-1300z m1184 241 c65 -182 92 -248 98 -235 4 11 44 118 89 239 45 121 85 228
91 238 7 14 23 17 98 17 l90 0 0 -37 c0 -21 4 -108 10 -193 5 -85 14 -261 19
-390 6 -129 14 -281 17 -337 l6 -103 -75 0 -75 0 -6 198 c-4 108 -8 244 -11
302 -3 58 -6 162 -7 233 -1 70 -5 127 -9 127 -4 0 -14 -21 -23 -47 -9 -27 -51
-141 -93 -255 l-76 -208 -57 0 -56 0 -83 233 c-45 127 -86 241 -91 252 -10 27
-18 -133 -26 -517 l-6 -318 -75 0 -75 0 7 88 c3 48 12 227 20 397 23 493 26
549 31 563 3 9 26 12 91 10 l86 -3 91 -254z"/>
</g>
</svg>
