<svg xmlns="http://www.w3.org/2000/svg" xmlns:xlink="http://www.w3.org/1999/xlink" version="1.1" x="0px" y="0px" viewBox="0 0 60 75" style="enable-background:new 0 0 60 60;" xml:space="preserve">
  <path fill="white" d="M48.8050537,55c0.5527344,0,1-0.4477539,1-1V15.3999023c0-0.0214233-0.0108643-0.0393066-0.012207-0.0604248  c-0.0056152-0.0914307-0.0233765-0.1793823-0.0535889-0.2658691c-0.0111694-0.0318604-0.019165-0.0632935-0.0333252-0.0935669  c-0.0477905-0.1025391-0.1082153-0.1994629-0.1906738-0.2828369c-0.0015259-0.0015259-0.0023193-0.003479-0.0038452-0.0050049  l-9.3988647-9.3983765c-0.0013428-0.0013428-0.0029907-0.0021362-0.0042725-0.003418  c-0.0834351-0.0827026-0.180542-0.1431274-0.2831421-0.190918c-0.0307007-0.0144043-0.0627441-0.022522-0.0950317-0.0338135  c-0.0854492-0.0296631-0.1723022-0.0472412-0.2626343-0.0529785C39.4455566,5.0112305,39.4269409,5,39.4046631,5H11.1947021  c-0.5527344,0-1,0.4477539-1,1v48c0,0.5522461,0.4472656,1,1,1H48.8050537z M40.4046631,8.4140625l5.9863281,5.9858398h-5.9863281  V8.4140625z M12.1947021,7h26.2099609v8.3999023c0,0.5522461,0.4472656,1,1,1h8.4003906V53H12.1947021V7z"/>
  <path fill="white" d="M19.005249,25.3867188h11.4501953c0.5527344,0,1-0.4477539,1-1v-2.3500977c0-2.2055664-1.7939453-4-4-4h-1.9384155  c1.7719116-0.3670654,3.1083374-1.9393921,3.1083374-3.8183594c0-2.1450195-1.75-3.8901367-3.9003906-3.8901367  c-2.1445313,0-3.8896484,1.7451172-3.8896484,3.8901367c0,1.8789673,1.3327026,3.4512939,3.0997925,3.8183594H22.005249  c-2.2060547,0-4,1.7944336-4,4v2.3500977C18.005249,24.9389648,18.4525146,25.3867188,19.005249,25.3867188z M22.8353271,14.2182617  c0-1.0419922,0.8476563-1.8901367,1.8896484-1.8901367c1.0478516,0,1.9003906,0.8481445,1.9003906,1.8901367  c0,1.0478516-0.8525391,1.8999023-1.9003906,1.8999023C23.6829834,16.1181641,22.8353271,15.2661133,22.8353271,14.2182617z   M20.005249,22.0366211c0-1.1030273,0.8974609-2,2-2h5.4501953c1.1025391,0,2,0.8969727,2,2v1.3500977H20.005249V22.0366211z"/>
  <path fill="white" d="M42.9954834,30.0825195H17.005249c-0.5527344,0-1,0.4477539-1,1s0.4472656,1,1,1h25.9902344c0.5527344,0,1-0.4477539,1-1  S43.5482178,30.0825195,42.9954834,30.0825195z"/>
  <path fill="white" d="M42.9954834,37.8774414H17.005249c-0.5527344,0-1,0.4477539-1,1s0.4472656,1,1,1h25.9902344c0.5527344,0,1-0.4477539,1-1  S43.5482178,37.8774414,42.9954834,37.8774414z"/>
  <path fill="white" d="M42.9954834,45.671875H17.005249c-0.5527344,0-1,0.4477539-1,1s0.4472656,1,1,1h25.9902344c0.5527344,0,1-0.4477539,1-1  S43.5482178,45.671875,42.9954834,45.671875z"/>
</svg>